G04*
G04 #@! TF.GenerationSoftware,Altium Limited,Altium Designer,24.1.2 (44)*
G04*
G04 Layer_Color=16711935*
%FSLAX44Y44*%
%MOMM*%
G71*
G04*
G04 #@! TF.SameCoordinates,69F57405-8C0C-4A01-AEDB-9DA0B547040B*
G04*
G04*
G04 #@! TF.FilePolarity,Positive*
G04*
G01*
G75*
%ADD13C,0.2000*%
%ADD35C,0.2032*%
%ADD47C,0.0500*%
D13*
X1126469Y378250D02*
X1153531D01*
X1126469Y361750D02*
Y378250D01*
Y361750D02*
X1153531D01*
Y378250D01*
X982000Y486000D02*
X998000D01*
Y458000D02*
Y486000D01*
X982000Y458000D02*
X998000D01*
X982000D02*
Y486000D01*
X1026500Y453000D02*
X1054500D01*
X1026500Y437000D02*
Y453000D01*
Y437000D02*
X1054500D01*
Y453000D01*
X977000Y414500D02*
X993000D01*
Y386500D02*
Y414500D01*
X977000Y386500D02*
X993000D01*
X977000D02*
Y414500D01*
X1122250Y412500D02*
X1137750D01*
Y380500D02*
Y412500D01*
X1122250Y380500D02*
X1137750D01*
X1122250D02*
Y412500D01*
X1142250D02*
X1157750D01*
Y380500D02*
Y412500D01*
X1142250Y380500D02*
X1157750D01*
X1142250D02*
Y412500D01*
X1050500Y417000D02*
Y433000D01*
X1078500D01*
Y417000D02*
Y433000D01*
X1050500Y417000D02*
X1078500D01*
X1049000D02*
Y433000D01*
X1021000Y417000D02*
X1049000D01*
X1021000D02*
Y433000D01*
X1049000D01*
X1097000Y489500D02*
X1113000D01*
Y461500D02*
Y489500D01*
X1097000Y461500D02*
X1113000D01*
X1097000D02*
Y489500D01*
X1011000Y502000D02*
Y518000D01*
X1039000D01*
Y502000D02*
Y518000D01*
X1011000Y502000D02*
X1039000D01*
X1047250Y494000D02*
X1062750D01*
X1047250D02*
Y526000D01*
X1062750D01*
Y494000D02*
Y526000D01*
X977250Y451000D02*
X992750D01*
Y419000D02*
Y451000D01*
X977250Y419000D02*
X992750D01*
X977250D02*
Y451000D01*
X1055500Y437000D02*
Y453000D01*
X1083500D01*
Y437000D02*
Y453000D01*
X1055500Y437000D02*
X1083500D01*
D35*
X965000Y465000D02*
Y475000D01*
X960000Y470000D02*
X970000D01*
D47*
X955000Y453000D02*
X975000D01*
X955000Y487000D02*
X975000D01*
Y453000D02*
Y487000D01*
X955000Y453000D02*
Y487000D01*
M02*
