G04*
G04 #@! TF.GenerationSoftware,Altium Limited,Altium Designer,24.1.2 (44)*
G04*
G04 Layer_Color=128*
%FSLAX44Y44*%
%MOMM*%
G71*
G04*
G04 #@! TF.SameCoordinates,69F57405-8C0C-4A01-AEDB-9DA0B547040B*
G04*
G04*
G04 #@! TF.FilePolarity,Positive*
G04*
G01*
G75*
%ADD15C,0.1270*%
D15*
X913300Y545000D02*
X924300D01*
X918800Y539500D02*
Y550500D01*
X938700Y545000D02*
X949700D01*
X944200Y539500D02*
Y550500D01*
X1014900Y545000D02*
X1025900D01*
X1020400Y539500D02*
Y550500D01*
X1065700Y545000D02*
X1076700D01*
X1071200Y539500D02*
Y550500D01*
X1116500Y545000D02*
X1127500D01*
X1122000Y539500D02*
Y550500D01*
X1141900Y545000D02*
X1152900D01*
X1147400Y539500D02*
Y550500D01*
X1091100Y545000D02*
X1102100D01*
X1096600Y539500D02*
Y550500D01*
X1040300Y545000D02*
X1051300D01*
X1045800Y539500D02*
Y550500D01*
X989500Y545000D02*
X1000500D01*
X995000Y539500D02*
Y550500D01*
X964100Y545000D02*
X975100D01*
X969600Y539500D02*
Y550500D01*
X915900Y330000D02*
X926900D01*
X921400Y324500D02*
Y335500D01*
X941300Y330000D02*
X952300D01*
X946800Y324500D02*
Y335500D01*
X1017500Y330000D02*
X1028500D01*
X1023000Y324500D02*
Y335500D01*
X1068300Y330000D02*
X1079300D01*
X1073800Y324500D02*
Y335500D01*
X1119100Y330000D02*
X1130100D01*
X1124600Y324500D02*
Y335500D01*
X1144500Y330000D02*
X1155500D01*
X1150000Y324500D02*
Y335500D01*
X1093700Y330000D02*
X1104700D01*
X1099200Y324500D02*
Y335500D01*
X1042900Y330000D02*
X1053900D01*
X1048400Y324500D02*
Y335500D01*
X992100Y330000D02*
X1003100D01*
X997600Y324500D02*
Y335500D01*
X966700Y330000D02*
X977700D01*
X972200Y324500D02*
Y335500D01*
X1081532Y527812D02*
X1084072D01*
X1082802Y526542D02*
Y529082D01*
X1114298Y417322D02*
X1116838D01*
X1115568Y416052D02*
Y418592D01*
X1140093Y417689D02*
X1142633D01*
X1141363Y416419D02*
Y418959D01*
X1127506Y417576D02*
X1130046D01*
X1128776Y416306D02*
Y418846D01*
X1108964Y504952D02*
X1111504D01*
X1110234Y503682D02*
Y506222D01*
X977646Y470916D02*
X980186D01*
X978916Y469646D02*
Y472186D01*
X996696Y504952D02*
X999236D01*
X997966Y503682D02*
Y506222D01*
X1152652Y470154D02*
X1155192D01*
X1153922Y468884D02*
Y471424D01*
X1073658Y464820D02*
X1076198D01*
X1074928Y463550D02*
Y466090D01*
X917194Y525780D02*
X919734D01*
X918464Y524510D02*
Y527050D01*
X1028184Y473194D02*
X1030724D01*
X1029454Y471924D02*
Y474464D01*
X1042924Y472948D02*
X1045464D01*
X1044194Y471678D02*
Y474218D01*
X1069086Y475742D02*
X1071626D01*
X1070356Y474472D02*
Y477012D01*
X1015679Y476718D02*
X1018219D01*
X1016949Y475448D02*
Y477988D01*
X1140206Y492506D02*
X1142746D01*
X1141476Y491236D02*
Y493776D01*
X1087120Y482092D02*
X1089660D01*
X1088390Y480822D02*
Y483362D01*
X1068324Y415544D02*
X1070864D01*
X1069594Y414274D02*
Y416814D01*
X1054608Y415544D02*
X1057148D01*
X1055878Y414274D02*
Y416814D01*
X903478Y471678D02*
X906018D01*
X904748Y470408D02*
Y472948D01*
X933958Y426212D02*
X936498D01*
X935228Y424942D02*
Y427482D01*
X1084811Y365275D02*
X1087351D01*
X1086081Y364005D02*
Y366545D01*
X1017168Y445000D02*
X1019708D01*
X1018438Y443730D02*
Y446270D01*
X1094455Y484245D02*
X1096995D01*
X1095725Y482975D02*
Y485515D01*
M02*
