G04*
G04 #@! TF.GenerationSoftware,Altium Limited,Altium Designer,24.1.2 (44)*
G04*
G04 Layer_Color=16711935*
%FSLAX44Y44*%
%MOMM*%
G71*
G04*
G04 #@! TF.SameCoordinates,69F57405-8C0C-4A01-AEDB-9DA0B547040B*
G04*
G04*
G04 #@! TF.FilePolarity,Negative*
G04*
G01*
G75*
%ADD21R,0.7000X1.3000*%
%ADD22R,1.3000X0.7000*%
%ADD31C,1.8032*%
G04:AMPARAMS|DCode=32|XSize=1.8032mm|YSize=1.8032mm|CornerRadius=0.5016mm|HoleSize=0mm|Usage=FLASHONLY|Rotation=180.000|XOffset=0mm|YOffset=0mm|HoleType=Round|Shape=RoundedRectangle|*
%AMROUNDEDRECTD32*
21,1,1.8032,0.8000,0,0,180.0*
21,1,0.8000,1.8032,0,0,180.0*
1,1,1.0032,-0.4000,0.4000*
1,1,1.0032,0.4000,0.4000*
1,1,1.0032,0.4000,-0.4000*
1,1,1.0032,-0.4000,-0.4000*
%
%ADD32ROUNDEDRECTD32*%
%ADD33C,0.7112*%
%ADD41R,1.1048X1.3562*%
%ADD42R,1.2000X0.9000*%
%ADD44R,1.6532X1.4532*%
D21*
X1050000Y445000D02*
D03*
X1031000D02*
D03*
X1074000Y425000D02*
D03*
X1055000D02*
D03*
X1025500D02*
D03*
X1044500D02*
D03*
X1034500Y510000D02*
D03*
X1015500D02*
D03*
X1079000Y445000D02*
D03*
X1060000D02*
D03*
D22*
X990000Y462500D02*
D03*
Y481500D02*
D03*
X985000Y391000D02*
D03*
Y410000D02*
D03*
X1105000Y466000D02*
D03*
Y485000D02*
D03*
D31*
X918800Y545000D02*
D03*
X944200D02*
D03*
X1020400D02*
D03*
X1071200D02*
D03*
X1122000D02*
D03*
X1096600D02*
D03*
X1045800D02*
D03*
X995000D02*
D03*
X969600D02*
D03*
X921400Y330000D02*
D03*
X946800D02*
D03*
X1023000D02*
D03*
X1073800D02*
D03*
X1124600D02*
D03*
X1099200D02*
D03*
X1048400D02*
D03*
X997600D02*
D03*
X972200D02*
D03*
D32*
X1147400Y545000D02*
D03*
X1150000Y330000D02*
D03*
D33*
X1082802Y527812D02*
D03*
X1115568Y417322D02*
D03*
X1141363Y417689D02*
D03*
X1128776Y417576D02*
D03*
X1110234Y504952D02*
D03*
X978916Y470916D02*
D03*
X997966Y504952D02*
D03*
X1153922Y470154D02*
D03*
X1074928Y464820D02*
D03*
X918464Y525780D02*
D03*
X1029454Y473194D02*
D03*
X1044194Y472948D02*
D03*
X1070356Y475742D02*
D03*
X1016949Y476718D02*
D03*
X1141476Y492506D02*
D03*
X1088390Y482092D02*
D03*
X1069594Y415544D02*
D03*
X1055878D02*
D03*
X904748Y471678D02*
D03*
X935228Y426212D02*
D03*
X1086081Y365275D02*
D03*
X1018438Y445000D02*
D03*
X1095725Y484245D02*
D03*
D41*
X1147007Y370000D02*
D03*
X1132993D02*
D03*
D42*
X1130000Y386000D02*
D03*
Y407000D02*
D03*
X1150000Y386000D02*
D03*
Y407000D02*
D03*
X1055000Y520500D02*
D03*
Y499500D02*
D03*
X985000Y424500D02*
D03*
Y445500D02*
D03*
D44*
X965000Y461500D02*
D03*
Y478500D02*
D03*
M02*
