G04*
G04 #@! TF.GenerationSoftware,Altium Limited,Altium Designer,24.1.2 (44)*
G04*
G04 Layer_Color=32768*
%FSLAX44Y44*%
%MOMM*%
G71*
G04*
G04 #@! TF.SameCoordinates,69F57405-8C0C-4A01-AEDB-9DA0B547040B*
G04*
G04*
G04 #@! TF.FilePolarity,Positive*
G04*
G01*
G75*
%ADD13C,0.2000*%
%ADD35C,0.2032*%
D13*
X1130000Y376250D02*
X1150000D01*
X1130000Y363750D02*
Y376250D01*
Y363750D02*
X1150000D01*
Y376250D01*
X983000Y482750D02*
X997000D01*
Y461250D02*
Y482750D01*
X983000Y461250D02*
X997000D01*
X983000D02*
Y482750D01*
X1029750Y452000D02*
X1051250D01*
X1029750Y438000D02*
Y452000D01*
Y438000D02*
X1051250D01*
Y452000D01*
X978000Y411250D02*
X992000D01*
Y389750D02*
Y411250D01*
X978000Y389750D02*
X992000D01*
X978000D02*
Y411250D01*
X1123250Y407000D02*
X1136750D01*
Y386000D02*
Y407000D01*
X1123250Y386000D02*
X1136750D01*
X1123250D02*
Y407000D01*
X1143250D02*
X1156750D01*
Y386000D02*
Y407000D01*
X1143250Y386000D02*
X1156750D01*
X1143250D02*
Y407000D01*
X1053750Y418000D02*
Y432000D01*
X1075250D01*
Y418000D02*
Y432000D01*
X1053750Y418000D02*
X1075250D01*
X1045750D02*
Y432000D01*
X1024250Y418000D02*
X1045750D01*
X1024250D02*
Y432000D01*
X1045750D01*
X1098000Y486250D02*
X1112000D01*
Y464750D02*
Y486250D01*
X1098000Y464750D02*
X1112000D01*
X1098000D02*
Y486250D01*
X1014250Y503000D02*
Y517000D01*
X1035750D01*
Y503000D02*
Y517000D01*
X1014250Y503000D02*
X1035750D01*
X1048250Y499500D02*
X1061750D01*
X1048250D02*
Y520500D01*
X1061750D01*
Y499500D02*
Y520500D01*
X978250Y445500D02*
X991750D01*
Y424500D02*
Y445500D01*
X978250Y424500D02*
X991750D01*
X978250D02*
Y445500D01*
X1058750Y438000D02*
Y452000D01*
X1080250D01*
Y438000D02*
Y452000D01*
X1058750Y438000D02*
X1080250D01*
D35*
X958000Y459250D02*
X972000D01*
X958000Y480750D02*
X972000D01*
Y459250D02*
Y480750D01*
X958000Y459250D02*
Y480750D01*
M02*
