G04*
G04 #@! TF.GenerationSoftware,Altium Limited,Altium Designer,24.1.2 (44)*
G04*
G04 Layer_Color=65535*
%FSLAX44Y44*%
%MOMM*%
G71*
G04*
G04 #@! TF.SameCoordinates,69F57405-8C0C-4A01-AEDB-9DA0B547040B*
G04*
G04*
G04 #@! TF.FilePolarity,Positive*
G04*
G01*
G75*
%ADD10C,0.2540*%
%ADD11C,0.2500*%
%ADD12C,0.6000*%
%ADD13C,0.2000*%
%ADD14C,0.0762*%
%ADD15C,0.1270*%
D10*
X1169580Y301916D02*
G03*
X1178560Y323596I-21680J21680D01*
G01*
X1165382Y299720D02*
G03*
X1168800Y301136I0J4834D01*
G01*
X1178560Y556768D02*
G03*
X1176764Y561104I-6132J0D01*
G01*
X1169786Y568082D02*
G03*
X1154176Y574548I-15610J-15610D01*
G01*
X916432D02*
G03*
X894752Y565568I0J-30661D01*
G01*
X893826Y564642D02*
G03*
X888238Y551151I13491J-13491D01*
G01*
Y313388D02*
G03*
X890180Y308700I6630J0D01*
G01*
D02*
G03*
X911860Y299720I21680J21680D01*
G01*
X1168800Y301136D02*
X1169580Y301916D01*
X1169786Y568082D02*
X1176764Y561104D01*
X916432Y574548D02*
X1154176D01*
X893826Y564642D02*
X894752Y565568D01*
X888238Y313388D02*
Y551151D01*
X911860Y299720D02*
X1165382D01*
X1178560Y323850D02*
Y556768D01*
D11*
X1167350Y545000D02*
G03*
X1167350Y545000I-1250J0D01*
G01*
X993750Y475250D02*
G03*
X993750Y475250I-1250J0D01*
G01*
X1163422Y481252D02*
G03*
X1163422Y481252I-1250J0D01*
G01*
X1169950Y330000D02*
G03*
X1169950Y330000I-1250J0D01*
G01*
X962850Y386350D02*
G03*
X962850Y386350I-1250J0D01*
G01*
X921750Y504500D02*
G03*
X921750Y504500I-1250J0D01*
G01*
D12*
X1152872Y461002D02*
G03*
X1152872Y461002I-3000J0D01*
G01*
D13*
X904600Y558450D02*
X1161600D01*
Y531550D02*
Y558450D01*
X904600Y531550D02*
X1161600D01*
X904600D02*
Y558450D01*
X1011500Y483500D02*
X1014750D01*
X1080250D02*
X1083500D01*
Y411500D02*
Y414750D01*
Y480250D02*
Y483500D01*
X1011500Y411500D02*
X1014750D01*
X1080250D02*
X1083500D01*
X1011500D02*
Y414750D01*
Y480250D02*
Y483500D01*
X1109872Y439002D02*
Y471002D01*
X1159872Y439002D02*
Y471002D01*
X1109872Y439002D02*
X1159872D01*
X1109872Y471002D02*
X1159872D01*
X907200Y343450D02*
X1164200D01*
Y316550D02*
Y343450D01*
X907200Y316550D02*
X1164200D01*
X907200D02*
Y343450D01*
X905469Y456281D02*
X934531D01*
X905469Y433719D02*
X934531D01*
X909000Y432000D02*
X961000D01*
Y398000D02*
Y399250D01*
Y430750D02*
Y432000D01*
X909000Y398000D02*
X961000D01*
X909000D02*
Y399250D01*
Y430750D02*
Y432000D01*
X1076996Y393080D02*
X1081496D01*
X1076996Y379080D02*
X1081496D01*
X973000Y367750D02*
Y372250D01*
X987000Y367750D02*
Y372250D01*
X1132750Y498000D02*
X1137250D01*
X1132750Y512000D02*
X1137250D01*
X1117750Y398000D02*
X1122250D01*
X1117750Y412000D02*
X1122250D01*
X1004189Y355939D02*
Y384061D01*
X1025811Y355939D02*
Y384061D01*
X1038210Y364053D02*
Y386053D01*
X1062000Y364000D02*
Y386000D01*
X935469Y433719D02*
X964531D01*
X935469Y456281D02*
X964531D01*
X942000Y362200D02*
X958000D01*
X942000D02*
Y377800D01*
X958000Y362200D02*
Y377800D01*
X942000D02*
X958000D01*
X941250Y479750D02*
X948750D01*
X953750Y492250D02*
Y497750D01*
X941250Y510250D02*
X948750D01*
D14*
X973703Y405732D02*
Y402347D01*
X970317Y405732D01*
X969471D01*
X968625Y404886D01*
Y403193D01*
X969471Y402347D01*
X973703Y409964D02*
X968625D01*
X971164Y407425D01*
Y410811D01*
X973703Y417582D02*
X968625D01*
X970317Y419275D01*
X968625Y420968D01*
X973703D01*
X968625Y422660D02*
X973703D01*
X971164D01*
Y426046D01*
X968625D01*
X973703D01*
X970317Y427739D02*
Y431124D01*
X973703Y427739D01*
Y431124D01*
X1167117Y450541D02*
X1166271Y449695D01*
Y448002D01*
X1167117Y447155D01*
X1170502D01*
X1171349Y448002D01*
Y449695D01*
X1170502Y450541D01*
X1171349Y452234D02*
X1167963D01*
X1166271Y453927D01*
X1167963Y455619D01*
X1171349D01*
X1168810D01*
Y452234D01*
X1171349Y457312D02*
X1166271D01*
X1171349Y460698D01*
X1166271D01*
X1118651Y391551D02*
X1117804Y392397D01*
X1116112D01*
X1115265Y391551D01*
Y388165D01*
X1116112Y387319D01*
X1117804D01*
X1118651Y388165D01*
X1120344Y387319D02*
X1122037D01*
X1121190D01*
Y392397D01*
X1120344Y391551D01*
X1127961Y392397D02*
X1126268Y391551D01*
X1124576Y389858D01*
Y388165D01*
X1125422Y387319D01*
X1127115D01*
X1127961Y388165D01*
Y389012D01*
X1127115Y389858D01*
X1124576D01*
X1075246Y375919D02*
X1074399Y376765D01*
X1072707D01*
X1071860Y375919D01*
Y372533D01*
X1072707Y371687D01*
X1074399D01*
X1075246Y372533D01*
X1079478Y371687D02*
Y376765D01*
X1076938Y374226D01*
X1080324D01*
X1047747Y354350D02*
X1044361D01*
Y351811D01*
X1046054D01*
X1044361D01*
Y349272D01*
X1049439Y354350D02*
Y349272D01*
X1051979D01*
X1052825Y350118D01*
Y350964D01*
X1051979Y351811D01*
X1049439D01*
X1051979D01*
X1052825Y352657D01*
Y353503D01*
X1051979Y354350D01*
X1049439D01*
X1054518Y349272D02*
X1056210D01*
X1055364D01*
Y354350D01*
X1054518Y353503D01*
X1010080Y387869D02*
Y392948D01*
X1012619D01*
X1013465Y392102D01*
Y390409D01*
X1012619Y389562D01*
X1010080D01*
X1011772D02*
X1013465Y387869D01*
X1018543Y392948D02*
X1015158D01*
Y390409D01*
X1016851Y391255D01*
X1017697D01*
X1018543Y390409D01*
Y388716D01*
X1017697Y387869D01*
X1016004D01*
X1015158Y388716D01*
X976445Y391904D02*
X975599Y392750D01*
X973906D01*
X973059Y391904D01*
Y388518D01*
X973906Y387672D01*
X975599D01*
X976445Y388518D01*
X981523Y387672D02*
X978138D01*
X981523Y391057D01*
Y391904D01*
X980677Y392750D01*
X978984D01*
X978138Y391904D01*
X983216D02*
X984063Y392750D01*
X985755D01*
X986602Y391904D01*
Y388518D01*
X985755Y387672D01*
X984063D01*
X983216Y388518D01*
Y391904D01*
X932605Y367094D02*
X937683D01*
Y369634D01*
X936837Y370480D01*
X933452D01*
X932605Y369634D01*
Y367094D01*
X937683Y372173D02*
Y373866D01*
Y373019D01*
X932605D01*
X933452Y372173D01*
X948014Y464480D02*
X947167Y465326D01*
X945474D01*
X944628Y464480D01*
Y461094D01*
X945474Y460248D01*
X947167D01*
X948014Y461094D01*
X949706Y460248D02*
X951399D01*
X950553D01*
Y465326D01*
X949706Y464480D01*
X957324Y465326D02*
X953938D01*
Y462787D01*
X955631Y463634D01*
X956478D01*
X957324Y462787D01*
Y461094D01*
X956478Y460248D01*
X954785D01*
X953938Y461094D01*
X918042Y464734D02*
X917195Y465580D01*
X915502D01*
X914656Y464734D01*
Y461348D01*
X915502Y460502D01*
X917195D01*
X918042Y461348D01*
X919734Y460502D02*
X921427D01*
X920581D01*
Y465580D01*
X919734Y464734D01*
X926506Y460502D02*
Y465580D01*
X923966Y463041D01*
X927352D01*
X991532Y568620D02*
X990686Y569466D01*
X988993D01*
X988147Y568620D01*
Y565234D01*
X988993Y564388D01*
X990686D01*
X991532Y565234D01*
Y566927D01*
X989840D01*
X993225Y564388D02*
Y569466D01*
X996611Y564388D01*
Y569466D01*
X998304D02*
Y564388D01*
X1000843D01*
X1001689Y565234D01*
Y568620D01*
X1000843Y569466D01*
X998304D01*
X963255Y568874D02*
X964101Y569720D01*
X965794D01*
X966640Y568874D01*
Y568028D01*
X965794Y567181D01*
X964948D01*
X965794D01*
X966640Y566335D01*
Y565488D01*
X965794Y564642D01*
X964101D01*
X963255Y565488D01*
X968333Y569720D02*
Y566335D01*
X970026Y564642D01*
X971719Y566335D01*
Y569720D01*
X973412Y568874D02*
X974258Y569720D01*
X975951D01*
X976797Y568874D01*
Y568028D01*
X975951Y567181D01*
X975104D01*
X975951D01*
X976797Y566335D01*
Y565488D01*
X975951Y564642D01*
X974258D01*
X973412Y565488D01*
X1017195Y510200D02*
X1016348Y511046D01*
X1014656D01*
X1013809Y510200D01*
Y509354D01*
X1014656Y508507D01*
X1016348D01*
X1017195Y507661D01*
Y506814D01*
X1016348Y505968D01*
X1014656D01*
X1013809Y506814D01*
X1018887Y511046D02*
X1022273D01*
X1020580D01*
Y505968D01*
X1023966D02*
Y511046D01*
X1025659Y509354D01*
X1027351Y511046D01*
Y505968D01*
X1029044Y510200D02*
X1029891Y511046D01*
X1031583D01*
X1032430Y510200D01*
Y509354D01*
X1031583Y508507D01*
X1030737D01*
X1031583D01*
X1032430Y507661D01*
Y506814D01*
X1031583Y505968D01*
X1029891D01*
X1029044Y506814D01*
X1037508Y505968D02*
X1034122D01*
X1037508Y509354D01*
Y510200D01*
X1036662Y511046D01*
X1034969D01*
X1034122Y510200D01*
X1042586D02*
X1041740Y511046D01*
X1040047D01*
X1039201Y510200D01*
Y506814D01*
X1040047Y505968D01*
X1041740D01*
X1042586Y506814D01*
Y508507D01*
X1040894D01*
X1046818Y505968D02*
Y511046D01*
X1044279Y508507D01*
X1047665D01*
X1049358Y511046D02*
X1052743D01*
Y510200D01*
X1049358Y506814D01*
Y505968D01*
X1056975D02*
Y511046D01*
X1054436Y508507D01*
X1057822D01*
X1062900Y510200D02*
X1062054Y511046D01*
X1060361D01*
X1059514Y510200D01*
Y506814D01*
X1060361Y505968D01*
X1062054D01*
X1062900Y506814D01*
X1067978Y511046D02*
X1064593D01*
Y505968D01*
X1067978D01*
X1064593Y508507D02*
X1066285D01*
X1069671Y511046D02*
X1073056D01*
X1071364D01*
Y505968D01*
X1078135Y511046D02*
X1076442Y510200D01*
X1074749Y508507D01*
Y506814D01*
X1075596Y505968D01*
X1077289D01*
X1078135Y506814D01*
Y507661D01*
X1077289Y508507D01*
X1074749D01*
X1131148Y520614D02*
X1130301Y521460D01*
X1128608D01*
X1127762Y520614D01*
Y517228D01*
X1128608Y516382D01*
X1130301D01*
X1131148Y517228D01*
X1132840Y516382D02*
X1134533D01*
X1133687D01*
Y521460D01*
X1132840Y520614D01*
X1137072Y521460D02*
X1140458D01*
Y520614D01*
X1137072Y517228D01*
Y516382D01*
X976462Y523916D02*
X975615Y524762D01*
X973923D01*
X973076Y523916D01*
Y520530D01*
X973923Y519684D01*
X975615D01*
X976462Y520530D01*
X978154Y519684D02*
X979847D01*
X979001D01*
Y524762D01*
X978154Y523916D01*
X982386D02*
X983233Y524762D01*
X984926D01*
X985772Y523916D01*
Y523070D01*
X984926Y522223D01*
X984079D01*
X984926D01*
X985772Y521377D01*
Y520530D01*
X984926Y519684D01*
X983233D01*
X982386Y520530D01*
X903564Y522646D02*
X902717Y523492D01*
X901024D01*
X900178Y522646D01*
Y519260D01*
X901024Y518414D01*
X902717D01*
X903564Y519260D01*
X905256Y518414D02*
X906949D01*
X906103D01*
Y523492D01*
X905256Y522646D01*
X912874Y518414D02*
X909488D01*
X912874Y521800D01*
Y522646D01*
X912028Y523492D01*
X910335D01*
X909488Y522646D01*
X939633Y524254D02*
Y519176D01*
X943018D01*
X944711Y524254D02*
Y519176D01*
X947250D01*
X948097Y520022D01*
Y523408D01*
X947250Y524254D01*
X944711D01*
X952329D02*
X950636D01*
X949790Y523408D01*
Y520022D01*
X950636Y519176D01*
X952329D01*
X953175Y520022D01*
Y523408D01*
X952329Y524254D01*
X1144949Y308524D02*
X1144103Y309370D01*
X1142410D01*
X1141564Y308524D01*
Y305138D01*
X1142410Y304292D01*
X1144103D01*
X1144949Y305138D01*
X1146642Y304292D02*
Y307678D01*
X1148335Y309370D01*
X1150028Y307678D01*
Y304292D01*
Y306831D01*
X1146642D01*
X1151720Y304292D02*
Y309370D01*
X1155106Y304292D01*
Y309370D01*
X1156799D02*
Y304292D01*
Y306831D01*
X1160184D01*
Y309370D01*
Y304292D01*
X1118533Y308778D02*
X1117687Y309624D01*
X1115994D01*
X1115148Y308778D01*
Y305392D01*
X1115994Y304546D01*
X1117687D01*
X1118533Y305392D01*
X1120226Y304546D02*
Y307932D01*
X1121919Y309624D01*
X1123612Y307932D01*
Y304546D01*
Y307085D01*
X1120226D01*
X1125304Y304546D02*
Y309624D01*
X1128690Y304546D01*
Y309624D01*
X1130383D02*
Y304546D01*
X1133768D01*
X1067141D02*
Y309624D01*
X1069680D01*
X1070526Y308778D01*
Y307085D01*
X1069680Y306239D01*
X1067141D01*
X1072219Y309624D02*
Y304546D01*
X1073912Y306239D01*
X1075605Y304546D01*
Y309624D01*
X1077298Y304546D02*
Y309624D01*
X1078990Y307932D01*
X1080683Y309624D01*
Y304546D01*
X1096180Y308778D02*
X1095334Y309624D01*
X1093641D01*
X1092795Y308778D01*
Y305392D01*
X1093641Y304546D01*
X1095334D01*
X1096180Y305392D01*
Y307085D01*
X1094488D01*
X1097873Y304546D02*
Y309624D01*
X1101259Y304546D01*
Y309624D01*
X1102952D02*
Y304546D01*
X1105491D01*
X1106337Y305392D01*
Y308778D01*
X1105491Y309624D01*
X1102952D01*
X1014479Y309709D02*
X1016172D01*
X1015325D01*
Y304630D01*
X1014479D01*
X1016172D01*
X1018711Y303784D02*
X1022096D01*
X1027175Y309709D02*
X1023789D01*
Y307170D01*
X1025482D01*
X1023789D01*
Y304630D01*
X1028868Y309709D02*
Y304630D01*
X1031407D01*
X1032253Y305477D01*
Y306323D01*
X1031407Y307170D01*
X1028868D01*
X1031407D01*
X1032253Y308016D01*
Y308862D01*
X1031407Y309709D01*
X1028868D01*
X989164D02*
Y306323D01*
X990856Y304630D01*
X992549Y306323D01*
Y309709D01*
X994242Y303784D02*
X997628D01*
X1002706Y309709D02*
X999320D01*
Y307170D01*
X1001013D01*
X999320D01*
Y304630D01*
X1004399Y309709D02*
Y304630D01*
X1006938D01*
X1007784Y305477D01*
Y306323D01*
X1006938Y307170D01*
X1004399D01*
X1006938D01*
X1007784Y308016D01*
Y308862D01*
X1006938Y309709D01*
X1004399D01*
X1045634Y308778D02*
X1044788Y309624D01*
X1043095D01*
X1042249Y308778D01*
Y305392D01*
X1043095Y304546D01*
X1044788D01*
X1045634Y305392D01*
Y307085D01*
X1043942D01*
X1047327Y304546D02*
Y309624D01*
X1050713Y304546D01*
Y309624D01*
X1052406D02*
Y304546D01*
X1054945D01*
X1055791Y305392D01*
Y308778D01*
X1054945Y309624D01*
X1052406D01*
X968672Y308778D02*
X967826Y309624D01*
X966133D01*
X965287Y308778D01*
Y305392D01*
X966133Y304546D01*
X967826D01*
X968672Y305392D01*
Y307085D01*
X966980D01*
X970365Y304546D02*
Y309624D01*
X973751Y304546D01*
Y309624D01*
X975444D02*
Y304546D01*
X977983D01*
X978829Y305392D01*
Y308778D01*
X977983Y309624D01*
X975444D01*
X943272Y309032D02*
X942426Y309878D01*
X940733D01*
X939887Y309032D01*
Y305646D01*
X940733Y304800D01*
X942426D01*
X943272Y305646D01*
Y307339D01*
X941580D01*
X944965Y304800D02*
Y309878D01*
X948351Y304800D01*
Y309878D01*
X950044D02*
Y304800D01*
X952583D01*
X953429Y305646D01*
Y309032D01*
X952583Y309878D01*
X950044D01*
X917872Y309286D02*
X917026Y310132D01*
X915333D01*
X914487Y309286D01*
Y305900D01*
X915333Y305054D01*
X917026D01*
X917872Y305900D01*
Y307593D01*
X916180D01*
X919565Y305054D02*
Y310132D01*
X922951Y305054D01*
Y310132D01*
X924644D02*
Y305054D01*
X927183D01*
X928029Y305900D01*
Y309286D01*
X927183Y310132D01*
X924644D01*
X1036915Y568620D02*
X1036069Y569466D01*
X1034376D01*
X1033530Y568620D01*
Y567774D01*
X1034376Y566927D01*
X1036069D01*
X1036915Y566081D01*
Y565234D01*
X1036069Y564388D01*
X1034376D01*
X1033530Y565234D01*
X1038608Y569466D02*
Y564388D01*
X1040301Y566081D01*
X1041994Y564388D01*
Y569466D01*
X1043686D02*
Y564388D01*
X1046226D01*
X1047072Y565234D01*
Y568620D01*
X1046226Y569466D01*
X1043686D01*
X1048765D02*
X1050458D01*
X1049611D01*
Y564388D01*
X1048765D01*
X1050458D01*
X1055536Y569466D02*
X1053843D01*
X1052997Y568620D01*
Y565234D01*
X1053843Y564388D01*
X1055536D01*
X1056382Y565234D01*
Y568620D01*
X1055536Y569466D01*
X1093132Y568620D02*
X1092286Y569466D01*
X1090593D01*
X1089747Y568620D01*
Y565234D01*
X1090593Y564388D01*
X1092286D01*
X1093132Y565234D01*
Y566927D01*
X1091440D01*
X1094825Y564388D02*
Y569466D01*
X1098211Y564388D01*
Y569466D01*
X1099904D02*
Y564388D01*
X1102443D01*
X1103289Y565234D01*
Y568620D01*
X1102443Y569466D01*
X1099904D01*
X1063416Y568620D02*
X1062570Y569466D01*
X1060877D01*
X1060031Y568620D01*
Y567774D01*
X1060877Y566927D01*
X1062570D01*
X1063416Y566081D01*
Y565234D01*
X1062570Y564388D01*
X1060877D01*
X1060031Y565234D01*
X1065109Y569466D02*
Y564388D01*
X1066802Y566081D01*
X1068494Y564388D01*
Y569466D01*
X1073573Y568620D02*
X1072726Y569466D01*
X1071034D01*
X1070187Y568620D01*
Y565234D01*
X1071034Y564388D01*
X1072726D01*
X1073573Y565234D01*
X1075266Y569466D02*
Y564388D01*
X1078651D01*
X1080344Y569466D02*
Y564388D01*
Y566081D01*
X1083729Y569466D01*
X1081190Y566927D01*
X1083729Y564388D01*
X1011008D02*
Y569466D01*
X1014393Y564388D01*
Y569466D01*
X1016086Y564388D02*
Y569466D01*
X1018625D01*
X1019472Y568620D01*
Y566927D01*
X1018625Y566081D01*
X1016086D01*
X1017779D02*
X1019472Y564388D01*
X1024550Y568620D02*
X1023704Y569466D01*
X1022011D01*
X1021164Y568620D01*
Y567774D01*
X1022011Y566927D01*
X1023704D01*
X1024550Y566081D01*
Y565234D01*
X1023704Y564388D01*
X1022011D01*
X1021164Y565234D01*
X1026243Y569466D02*
X1029628D01*
X1027935D01*
Y564388D01*
X917364Y569466D02*
X913978D01*
Y566927D01*
X915671Y567774D01*
X916517D01*
X917364Y566927D01*
Y565234D01*
X916517Y564388D01*
X914825D01*
X913978Y565234D01*
X919056Y569466D02*
Y566081D01*
X920749Y564388D01*
X922442Y566081D01*
Y569466D01*
X1143932Y568366D02*
X1143086Y569212D01*
X1141393D01*
X1140547Y568366D01*
Y564980D01*
X1141393Y564134D01*
X1143086D01*
X1143932Y564980D01*
Y566673D01*
X1142240D01*
X1145625Y564134D02*
Y569212D01*
X1149011Y564134D01*
Y569212D01*
X1150704D02*
Y564134D01*
X1153243D01*
X1154089Y564980D01*
Y568366D01*
X1153243Y569212D01*
X1150704D01*
X940732Y568366D02*
X939886Y569212D01*
X938193D01*
X937347Y568366D01*
Y564980D01*
X938193Y564134D01*
X939886D01*
X940732Y564980D01*
Y566673D01*
X939040D01*
X942425Y564134D02*
Y569212D01*
X945811Y564134D01*
Y569212D01*
X947504D02*
Y564134D01*
X950043D01*
X950889Y564980D01*
Y568366D01*
X950043Y569212D01*
X947504D01*
X1118278Y568620D02*
X1117432Y569466D01*
X1115739D01*
X1114893Y568620D01*
Y565234D01*
X1115739Y564388D01*
X1117432D01*
X1118278Y565234D01*
Y566927D01*
X1116586D01*
X1119971Y564388D02*
Y569466D01*
X1123357Y564388D01*
Y569466D01*
X1125050D02*
Y564388D01*
X1127589D01*
X1128435Y565234D01*
Y568620D01*
X1127589Y569466D01*
X1125050D01*
D15*
X1092622Y355640D02*
X1091564Y356698D01*
X1089448D01*
X1088390Y355640D01*
Y354582D01*
X1089448Y353524D01*
X1091564D01*
X1092622Y352466D01*
Y351408D01*
X1091564Y350350D01*
X1089448D01*
X1088390Y351408D01*
X1094738Y356698D02*
Y350350D01*
Y353524D01*
X1095796Y354582D01*
X1097912D01*
X1098970Y353524D01*
Y350350D01*
X1101086Y354582D02*
Y350350D01*
Y352466D01*
X1102144Y353524D01*
X1103202Y354582D01*
X1104260D01*
X1110608Y350350D02*
X1108492D01*
X1107434Y351408D01*
Y353524D01*
X1108492Y354582D01*
X1110608D01*
X1111666Y353524D01*
Y352466D01*
X1107434D01*
X1113782Y354582D02*
Y351408D01*
X1114840Y350350D01*
X1118014D01*
Y349292D01*
X1116956Y348234D01*
X1115898D01*
X1118014Y350350D02*
Y354582D01*
X1121188D02*
X1123304D01*
X1124362Y353524D01*
Y350350D01*
X1121188D01*
X1120130Y351408D01*
X1121188Y352466D01*
X1124362D01*
X1126478Y350350D02*
Y354582D01*
X1129652D01*
X1130710Y353524D01*
Y350350D01*
X1132826D02*
X1136000D01*
X1137058Y351408D01*
X1136000Y352466D01*
X1133884D01*
X1132826Y353524D01*
X1133884Y354582D01*
X1137058D01*
X1139174Y356698D02*
Y350350D01*
Y353524D01*
X1140231Y354582D01*
X1142347D01*
X1143406Y353524D01*
Y350350D01*
X1151869D02*
Y356698D01*
X1156101Y350350D01*
Y356698D01*
X1161391Y350350D02*
X1159275D01*
X1158217Y351408D01*
Y353524D01*
X1159275Y354582D01*
X1161391D01*
X1162449Y353524D01*
Y352466D01*
X1158217D01*
X1164565Y350350D02*
Y354582D01*
X1165623D01*
X1166681Y353524D01*
Y350350D01*
Y353524D01*
X1167739Y354582D01*
X1168797Y353524D01*
Y350350D01*
X1171971Y354582D02*
X1174087D01*
X1175145Y353524D01*
Y350350D01*
X1171971D01*
X1170913Y351408D01*
X1171971Y352466D01*
X1175145D01*
M02*
