M48
;Layer_Color=9474304
;FILE_FORMAT=4:4
METRIC,LZ
;TYPE=PLATED
T01F00S00C0.2540
T02F00S00C1.1000
%
T01
X01086081Y00365275
X01069594Y00415544
X01055878
X01115568Y00417322
X01128776Y00417576
X01141363Y00417689
X01153922Y00470154
X01141476Y00492506
X01110234Y00504952
X01095725Y00484245
X0108839Y00482092
X01070356Y00475742
X01074928Y0046482
X01044194Y00472948
X01029454Y00473194
X01016949Y00476718
X01018438Y00445
X00978916Y00470916
X00997966Y00504952
X00918464Y0052578
X00904748Y00471678
X00935228Y00426212
X01082802Y00527812
T02
X009214Y0033
X009468
X009722
X009976
X01023
X010484
X010738
X010992
X011246
X0115
X011474Y00545
X01122
X010966
X010712
X010458
X010204
X00995
X009696
X009442
X009188
M30
