G04*
G04 #@! TF.GenerationSoftware,Altium Limited,Altium Designer,24.1.2 (44)*
G04*
G04 Layer_Physical_Order=2*
G04 Layer_Color=16711680*
%FSLAX44Y44*%
%MOMM*%
G71*
G04*
G04 #@! TF.SameCoordinates,69F57405-8C0C-4A01-AEDB-9DA0B547040B*
G04*
G04*
G04 #@! TF.FilePolarity,Positive*
G04*
G01*
G75*
%ADD10C,0.2540*%
%ADD21R,0.7000X1.3000*%
%ADD22R,1.3000X0.7000*%
%ADD34C,0.3810*%
%ADD35C,0.2032*%
%ADD36C,0.5080*%
%ADD37R,1.8034X1.8288*%
%ADD38C,1.6000*%
G04:AMPARAMS|DCode=39|XSize=1.6mm|YSize=1.6mm|CornerRadius=0.4mm|HoleSize=0mm|Usage=FLASHONLY|Rotation=180.000|XOffset=0mm|YOffset=0mm|HoleType=Round|Shape=RoundedRectangle|*
%AMROUNDEDRECTD39*
21,1,1.6000,0.8000,0,0,180.0*
21,1,0.8000,1.6000,0,0,180.0*
1,1,0.8000,-0.4000,0.4000*
1,1,0.8000,0.4000,0.4000*
1,1,0.8000,0.4000,-0.4000*
1,1,0.8000,-0.4000,-0.4000*
%
%ADD39ROUNDEDRECTD39*%
%ADD40C,0.5080*%
%ADD41R,1.1048X1.3562*%
%ADD42R,1.2000X0.9000*%
%ADD43R,1.4500X1.2500*%
G36*
X1178560Y557530D02*
Y316230D01*
X1178306Y315976D01*
X1165860Y302260D01*
X1165606Y302006D01*
X1135672D01*
X1135646Y301942D01*
X1087374D01*
Y341566D01*
X1108737Y362929D01*
X1109910Y362443D01*
Y341064D01*
X1109910Y341064D01*
X1110186Y339677D01*
X1110972Y338500D01*
X1112012Y337461D01*
X1113001Y336472D01*
X1113232Y336240D01*
Y320802D01*
X1113429Y319811D01*
X1113991Y318971D01*
X1114831Y318409D01*
X1115822Y318212D01*
X1133856D01*
X1134847Y318409D01*
X1135687Y318971D01*
X1136249Y319811D01*
X1136446Y320802D01*
Y339090D01*
X1136249Y340081D01*
X1135687Y340921D01*
X1134847Y341483D01*
X1134521Y341548D01*
D01*
X1133856Y341680D01*
X1118048D01*
X1117162Y342566D01*
Y371354D01*
Y389034D01*
X1120190Y392062D01*
X1121460Y391536D01*
Y378960D01*
X1137823D01*
X1138540Y378960D01*
X1138943Y377857D01*
Y360679D01*
X1155071D01*
Y378960D01*
X1157916D01*
Y343044D01*
X1157314Y342442D01*
X1140968D01*
X1139977Y342245D01*
X1139137Y341683D01*
X1138575Y340843D01*
X1138378Y339852D01*
Y321564D01*
X1138575Y320573D01*
X1139137Y319733D01*
X1139977Y319171D01*
X1140968Y318974D01*
X1159002D01*
X1159993Y319171D01*
X1160833Y319733D01*
X1161395Y320573D01*
X1161592Y321564D01*
Y336464D01*
X1164106Y338978D01*
X1164106Y338978D01*
X1164892Y340154D01*
X1165168Y341542D01*
Y396958D01*
X1165168Y396958D01*
X1164892Y398345D01*
X1164106Y399522D01*
X1158540Y405088D01*
Y414040D01*
X1146588D01*
X1145712Y414915D01*
X1146443Y416679D01*
Y418700D01*
X1145669Y420567D01*
X1144240Y421996D01*
X1142373Y422769D01*
X1140352D01*
X1138485Y421996D01*
X1137056Y420567D01*
X1136283Y418700D01*
Y416679D01*
X1136850Y415310D01*
X1136168Y414040D01*
X1134084D01*
X1133336Y415310D01*
X1133856Y416566D01*
Y418587D01*
X1133083Y420454D01*
X1131654Y421883D01*
X1129787Y422656D01*
X1127766D01*
X1125898Y421883D01*
X1124469Y420454D01*
X1123696Y418587D01*
Y416566D01*
X1124216Y415310D01*
X1123468Y414040D01*
X1121460D01*
Y403587D01*
X1112012Y394140D01*
X1110742Y394666D01*
Y407002D01*
X1115982Y412242D01*
X1116579D01*
X1118446Y413015D01*
X1119875Y414444D01*
X1120648Y416311D01*
Y418332D01*
X1119875Y420200D01*
X1118446Y421629D01*
X1116579Y422402D01*
X1114557D01*
X1112690Y421629D01*
X1112012Y420950D01*
X1110742Y421476D01*
Y450850D01*
X1105923Y455669D01*
X1106409Y456842D01*
X1120535D01*
X1120535Y456842D01*
X1121922Y457118D01*
X1123099Y457904D01*
X1131723Y466528D01*
X1150363D01*
X1151044Y465847D01*
X1152912Y465074D01*
X1154932D01*
X1156800Y465847D01*
X1158229Y467276D01*
X1159002Y469143D01*
Y471165D01*
X1158229Y473032D01*
X1156800Y474461D01*
X1154932Y475234D01*
X1152912D01*
X1151044Y474461D01*
X1150363Y473780D01*
X1130221D01*
X1130221Y473780D01*
X1128833Y473504D01*
X1127657Y472718D01*
X1127657Y472718D01*
X1119033Y464094D01*
X1097498D01*
X1089152Y472440D01*
X1084072D01*
Y464094D01*
X1080782D01*
X1080008Y464868D01*
Y465830D01*
X1079235Y467698D01*
X1077806Y469127D01*
X1075938Y469900D01*
X1073917D01*
X1072050Y469127D01*
X1070621Y467698D01*
X1069848Y465830D01*
Y463810D01*
X1070621Y461942D01*
X1072050Y460513D01*
X1073917Y459740D01*
X1074881D01*
X1076716Y457904D01*
X1076716Y457904D01*
X1077893Y457118D01*
X1079280Y456842D01*
X1101852D01*
Y409100D01*
X1084072Y391320D01*
X1083334Y390582D01*
X1082492Y389322D01*
X1082196Y387835D01*
Y368575D01*
X1081774Y368153D01*
X1081001Y366286D01*
Y364264D01*
Y364264D01*
X1081774Y362397D01*
X1083203Y360968D01*
X1085070Y360195D01*
X1087092D01*
X1088959Y360968D01*
X1090388Y362397D01*
X1091161Y364264D01*
Y366286D01*
X1090388Y368153D01*
X1089966Y368575D01*
Y386226D01*
X1100679Y396939D01*
X1101852Y396453D01*
Y360426D01*
X1084072Y342646D01*
Y335828D01*
X1082802Y335488D01*
X1082234Y336472D01*
X1080272Y338434D01*
X1077868Y339822D01*
X1075188Y340540D01*
X1072412D01*
X1069732Y339822D01*
X1067328Y338434D01*
X1065366Y336472D01*
X1063978Y334068D01*
X1063260Y331388D01*
Y328612D01*
X1063978Y325932D01*
X1065366Y323528D01*
X1067328Y321566D01*
X1069732Y320178D01*
X1072412Y319460D01*
X1075188D01*
X1077868Y320178D01*
X1080272Y321566D01*
X1082234Y323528D01*
X1082802Y324512D01*
X1084072Y324172D01*
Y302768D01*
X1083756Y302006D01*
X1039368D01*
Y415960D01*
X1050798D01*
Y414534D01*
X1051571Y412666D01*
X1053000Y411237D01*
X1054867Y410464D01*
X1056889D01*
X1058756Y411237D01*
X1060185Y412666D01*
X1060958Y414534D01*
Y415960D01*
X1061040D01*
Y428546D01*
X1062747Y430253D01*
X1063589Y431513D01*
X1063885Y433000D01*
Y435960D01*
X1066040D01*
Y454040D01*
X1043960D01*
Y441454D01*
X1041753Y439247D01*
X1040911Y437987D01*
X1040615Y436500D01*
X1039368Y436555D01*
Y468630D01*
X1039114Y468884D01*
X1034034D01*
Y414020D01*
X1035812D01*
X1036574Y413258D01*
Y334772D01*
X1034055D01*
X1034034Y334793D01*
X1032878Y334140D01*
X1032764Y334168D01*
X1031434Y336472D01*
X1029472Y338434D01*
X1027068Y339822D01*
X1024388Y340540D01*
X1021612D01*
X1018932Y339822D01*
X1016528Y338434D01*
X1014566Y336472D01*
X1013178Y334068D01*
X1012460Y331388D01*
Y328612D01*
X1013178Y325932D01*
X1014566Y323528D01*
X1016528Y321566D01*
X1018932Y320178D01*
X1021612Y319460D01*
X1024388D01*
X1027068Y320178D01*
X1029472Y321566D01*
X1031434Y323528D01*
X1032764Y325832D01*
X1032878Y325860D01*
X1034034Y325207D01*
Y302514D01*
X1033824Y302006D01*
X906780D01*
X892302Y316484D01*
Y559816D01*
X892048Y560070D01*
X906018Y574040D01*
Y574294D01*
X1161796D01*
X1178560Y557530D01*
D02*
G37*
G36*
X1141460Y408913D02*
Y399960D01*
X1153412D01*
X1157916Y395456D01*
Y393040D01*
X1141460D01*
Y389626D01*
X1138540D01*
Y393040D01*
X1122963D01*
X1122438Y394310D01*
X1128087Y399960D01*
X1138540D01*
Y410037D01*
X1139810Y410563D01*
X1141460Y408913D01*
D02*
G37*
%LPC*%
G36*
X1055116Y556564D02*
X1037082D01*
X1036091Y556367D01*
X1035251Y555805D01*
X1034689Y554965D01*
X1034492Y553974D01*
Y535686D01*
X1034628Y535006D01*
X1034096Y534053D01*
X1033803Y533736D01*
X1023991D01*
X1023823Y535005D01*
X1024468Y535178D01*
X1026872Y536566D01*
X1028834Y538528D01*
X1030222Y540932D01*
X1030940Y543612D01*
Y546388D01*
X1030222Y549068D01*
X1028834Y551472D01*
X1026872Y553434D01*
X1024468Y554822D01*
X1021788Y555540D01*
X1019012D01*
X1016332Y554822D01*
X1013928Y553434D01*
X1011966Y551472D01*
X1010578Y549068D01*
X1009860Y546388D01*
Y543612D01*
X1010578Y540932D01*
X1011966Y538528D01*
X1013928Y536566D01*
X1016332Y535178D01*
X1016976Y535005D01*
X1016809Y533736D01*
X973191D01*
X973024Y535005D01*
X973668Y535178D01*
X976072Y536566D01*
X978034Y538528D01*
X979422Y540932D01*
X980140Y543612D01*
Y546388D01*
X979422Y549068D01*
X978034Y551472D01*
X976072Y553434D01*
X973668Y554822D01*
X970988Y555540D01*
X968212D01*
X965532Y554822D01*
X963128Y553434D01*
X961166Y551472D01*
X959778Y549068D01*
X959060Y546388D01*
Y543612D01*
X959778Y540932D01*
X961166Y538528D01*
X963128Y536566D01*
X965532Y535178D01*
X966177Y535005D01*
X966009Y533736D01*
X922391D01*
X922224Y535005D01*
X922868Y535178D01*
X925272Y536566D01*
X927234Y538528D01*
X928622Y540932D01*
X929340Y543612D01*
Y546388D01*
X928622Y549068D01*
X927234Y551472D01*
X925272Y553434D01*
X922868Y554822D01*
X920188Y555540D01*
X917412D01*
X914732Y554822D01*
X912328Y553434D01*
X910366Y551472D01*
X908978Y549068D01*
X908260Y546388D01*
Y543612D01*
X908978Y540932D01*
X910366Y538528D01*
X912328Y536566D01*
X914732Y535178D01*
X917412Y534460D01*
X918820D01*
X918891Y534278D01*
X919032Y533190D01*
X917578Y532219D01*
X914801Y529442D01*
X914518Y529018D01*
X914157Y528658D01*
X913962Y528186D01*
X913679Y527762D01*
X913579Y527262D01*
X913384Y526791D01*
Y526280D01*
X913285Y525780D01*
X913384Y525280D01*
Y524770D01*
X913579Y524298D01*
X913679Y523798D01*
X913962Y523374D01*
X914157Y522902D01*
X914518Y522542D01*
X914801Y522118D01*
X915226Y521834D01*
X915586Y521473D01*
X916058Y521278D01*
X916482Y520995D01*
X916982Y520895D01*
X917454Y520700D01*
X917964D01*
X918464Y520601D01*
X918964Y520700D01*
X919474D01*
X919946Y520895D01*
X920446Y520995D01*
X920870Y521278D01*
X921342Y521473D01*
X921702Y521834D01*
X922126Y522118D01*
X923385Y523377D01*
X1060328D01*
X1082414Y501289D01*
X1084095Y500167D01*
X1086077Y499772D01*
X1110234D01*
X1110734Y499872D01*
X1111245D01*
X1111716Y500067D01*
X1112216Y500167D01*
X1112640Y500450D01*
X1113112Y500645D01*
X1113472Y501006D01*
X1113896Y501289D01*
X1114180Y501714D01*
X1114541Y502074D01*
X1114736Y502546D01*
X1115019Y502970D01*
X1115119Y503470D01*
X1115314Y503941D01*
Y504452D01*
X1115414Y504952D01*
X1115314Y505452D01*
Y505962D01*
X1115119Y506434D01*
X1115019Y506934D01*
X1114736Y507358D01*
X1114541Y507830D01*
X1114180Y508190D01*
X1113896Y508615D01*
X1113472Y508898D01*
X1113112Y509259D01*
X1112640Y509454D01*
X1112216Y509737D01*
X1111716Y509837D01*
X1111245Y510032D01*
X1110734D01*
X1110234Y510131D01*
X1088222D01*
X1075341Y523013D01*
X1075827Y524186D01*
X1079243D01*
X1079924Y523505D01*
X1081792Y522732D01*
X1083812D01*
X1085680Y523505D01*
X1087109Y524934D01*
X1087882Y526801D01*
Y528823D01*
X1087109Y530690D01*
X1085680Y532119D01*
X1083812Y532892D01*
X1081792D01*
X1079924Y532119D01*
X1079243Y531438D01*
X1073340D01*
X1071491Y533287D01*
X1071977Y534460D01*
X1072588D01*
X1075268Y535178D01*
X1077672Y536566D01*
X1079634Y538528D01*
X1081022Y540932D01*
X1081740Y543612D01*
Y546388D01*
X1081022Y549068D01*
X1079634Y551472D01*
X1077672Y553434D01*
X1075268Y554822D01*
X1072588Y555540D01*
X1069812D01*
X1067132Y554822D01*
X1064728Y553434D01*
X1062766Y551472D01*
X1061378Y549068D01*
X1060660Y546388D01*
Y543612D01*
X1061378Y540932D01*
X1062177Y539548D01*
X1061444Y538278D01*
X1057706D01*
Y553974D01*
X1057509Y554965D01*
X1056947Y555805D01*
X1056107Y556367D01*
X1055116Y556564D01*
D02*
G37*
G36*
X1021540Y519040D02*
X1009460D01*
Y508837D01*
X1001266D01*
X1000844Y509259D01*
X998977Y510032D01*
X996955D01*
X995088Y509259D01*
X993659Y507830D01*
X992886Y505962D01*
Y503941D01*
X993659Y502074D01*
X994081Y501652D01*
Y488075D01*
X993546Y487540D01*
X980960D01*
Y482385D01*
X974790D01*
Y487290D01*
X955210D01*
Y475204D01*
X947975Y467969D01*
X947133Y466709D01*
X946837Y465222D01*
Y454722D01*
X947133Y453235D01*
X947975Y451975D01*
X957197Y442753D01*
X958457Y441911D01*
X959944Y441615D01*
X976460D01*
Y438460D01*
X993540D01*
Y452540D01*
X976460D01*
Y449385D01*
X961553D01*
X954607Y456331D01*
Y463613D01*
X960704Y469710D01*
X973917D01*
X974609Y468038D01*
X976038Y466609D01*
X977906Y465836D01*
X979927D01*
X981794Y466609D01*
X982475Y467290D01*
X992956D01*
X1013615Y446631D01*
X1013358Y446011D01*
Y445047D01*
X996436Y428126D01*
X993540D01*
Y431540D01*
X976460D01*
Y417460D01*
X981374D01*
Y416040D01*
X975960D01*
Y403960D01*
X994040D01*
Y416040D01*
X988626D01*
Y417460D01*
X993540D01*
Y420874D01*
X997938D01*
X997938Y420874D01*
X999326Y421150D01*
X1000502Y421936D01*
X1018486Y439920D01*
X1019449D01*
X1021316Y440693D01*
X1022745Y442122D01*
X1023518Y443989D01*
Y446011D01*
X1022745Y447878D01*
X1021316Y449307D01*
X1020792Y449524D01*
X1020419Y450082D01*
X997021Y473480D01*
X996954Y473525D01*
X996640Y475251D01*
X996789Y475460D01*
X999040D01*
Y477615D01*
X1011245D01*
X1011869Y476992D01*
Y475708D01*
X1012643Y473840D01*
X1014072Y472411D01*
X1015939Y471638D01*
X1017960D01*
X1019827Y472411D01*
X1021256Y473840D01*
X1022029Y475708D01*
Y477729D01*
X1021256Y479596D01*
X1019827Y481025D01*
X1018114Y481734D01*
X1017200Y482648D01*
X1017133Y482987D01*
X1016291Y484247D01*
X1015031Y485089D01*
X1013544Y485385D01*
X1002636D01*
X1001831Y486366D01*
X1001851Y486466D01*
Y501067D01*
X1009460D01*
Y500960D01*
X1021540D01*
Y519040D01*
D02*
G37*
G36*
X1091020Y492327D02*
X1083056D01*
X1081569Y492031D01*
X1080309Y491189D01*
X1069942Y480822D01*
X1069345D01*
X1067478Y480049D01*
X1066049Y478620D01*
X1065276Y476753D01*
Y474731D01*
X1066049Y472864D01*
X1067478Y471435D01*
X1069345Y470662D01*
X1071367D01*
X1073234Y471435D01*
X1074663Y472864D01*
X1075436Y474731D01*
Y475328D01*
X1084665Y484557D01*
X1089411D01*
X1090645Y483324D01*
Y483234D01*
X1091418Y481367D01*
X1092847Y479938D01*
X1094714Y479165D01*
X1095960D01*
Y478960D01*
X1114040D01*
Y491040D01*
X1095960D01*
Y490792D01*
X1094690Y490266D01*
X1093767Y491189D01*
X1092507Y492031D01*
X1091020Y492327D01*
D02*
G37*
G36*
X1063540Y506540D02*
X1046460D01*
Y492460D01*
X1051374D01*
Y485256D01*
X1044146Y478028D01*
X1043184D01*
X1041316Y477255D01*
X1039887Y475826D01*
X1039114Y473959D01*
Y471937D01*
X1039887Y470070D01*
X1041316Y468641D01*
X1043184Y467868D01*
X1045204D01*
X1047072Y468641D01*
X1048501Y470070D01*
X1049274Y471937D01*
Y472901D01*
X1057564Y481190D01*
X1057564Y481190D01*
X1058350Y482366D01*
X1058626Y483754D01*
X1058626Y483754D01*
Y492460D01*
X1063540D01*
Y506540D01*
D02*
G37*
G36*
X1085040Y454040D02*
X1084072D01*
Y446270D01*
X1085040D01*
Y454040D01*
D02*
G37*
G36*
Y443730D02*
X1084072D01*
Y435960D01*
X1085040D01*
Y443730D01*
D02*
G37*
G36*
X998988Y340540D02*
X996212D01*
X993532Y339822D01*
X991128Y338434D01*
X989166Y336472D01*
X987778Y334068D01*
X987060Y331388D01*
Y328612D01*
X987778Y325932D01*
X989166Y323528D01*
X991128Y321566D01*
X993532Y320178D01*
X996212Y319460D01*
X998988D01*
X1001668Y320178D01*
X1004072Y321566D01*
X1006034Y323528D01*
X1007422Y325932D01*
X1008140Y328612D01*
Y331388D01*
X1007422Y334068D01*
X1006034Y336472D01*
X1004072Y338434D01*
X1001668Y339822D01*
X998988Y340540D01*
D02*
G37*
%LPD*%
D10*
X1086081Y387835D02*
X1115568Y417322D01*
X1086081Y365275D02*
Y387835D01*
X993000Y481500D02*
X1013544D01*
X990000D02*
X993000D01*
X997966Y486466D01*
Y504952D01*
X987000Y481500D02*
X990000D01*
X1015500Y507182D02*
Y510000D01*
X1013270Y504952D02*
X1015500Y507182D01*
X997966Y504952D02*
X1013270D01*
X1083056Y488442D02*
X1091020D01*
X1070356Y475742D02*
X1083056Y488442D01*
X1091020D02*
X1095218Y484245D01*
X1095725D01*
X1013544Y480811D02*
X1016949Y477405D01*
X1013544Y480811D02*
Y481500D01*
X1016949Y476718D02*
Y477405D01*
X1055439Y415983D02*
X1055878Y415544D01*
X1055439Y415983D02*
Y424561D01*
X1055000Y425000D02*
X1055439Y424561D01*
X959944Y445500D02*
X985000D01*
X950722Y454722D02*
X959944Y445500D01*
X950722Y454722D02*
Y465222D01*
X964000Y478500D01*
X965000D02*
X984000D01*
X964000D02*
X965000D01*
X1055000Y425000D02*
Y428000D01*
X1060000Y433000D02*
Y445000D01*
X1055000Y428000D02*
X1060000Y433000D01*
X1050000Y445000D02*
X1060000D01*
X1050000Y442000D02*
Y445000D01*
X1044500Y425000D02*
Y436500D01*
X1050000Y442000D01*
X1104245Y484245D02*
X1105000Y485000D01*
X1095725Y484245D02*
X1104245D01*
X984000Y478500D02*
X987000Y481500D01*
D21*
X1050000Y445000D02*
D03*
X1031000D02*
D03*
X1074000Y425000D02*
D03*
X1055000D02*
D03*
X1025500D02*
D03*
X1044500D02*
D03*
X1034500Y510000D02*
D03*
X1015500D02*
D03*
X1079000Y445000D02*
D03*
X1060000D02*
D03*
D22*
X990000Y462500D02*
D03*
Y481500D02*
D03*
X985000Y391000D02*
D03*
Y410000D02*
D03*
X1105000Y466000D02*
D03*
Y485000D02*
D03*
D34*
X1034500Y478584D02*
Y510000D01*
X1029454Y473537D02*
X1034500Y478584D01*
X1029454Y473194D02*
Y473537D01*
X1034500Y510000D02*
X1043000D01*
X1053500Y520500D01*
X1055000D01*
X1096517Y545000D02*
X1096600D01*
X1088390Y482092D02*
X1088633Y481849D01*
Y479367D02*
X1102000Y466000D01*
X1088633Y479367D02*
Y481849D01*
X1069837Y415787D02*
Y417837D01*
X1074000Y422000D02*
Y428000D01*
X1069837Y417837D02*
X1074000Y422000D01*
X1069594Y415544D02*
X1069837Y415787D01*
X1096600Y545000D02*
Y548299D01*
X1075810Y429595D02*
X1079000Y432785D01*
X1075595Y429595D02*
X1075810D01*
X1079000Y432785D02*
Y445000D01*
X1074000Y428000D02*
X1075595Y429595D01*
X1027732Y439447D02*
X1028447D01*
X1031000Y442000D02*
Y445000D01*
X1028447Y439447D02*
X1031000Y442000D01*
X1025500Y437215D02*
X1027732Y439447D01*
X1025500Y425000D02*
Y437215D01*
X988000Y391000D02*
X1020172Y423172D01*
X1023671D02*
X1025500Y425000D01*
X1020172Y423172D02*
X1023671D01*
X985000Y391000D02*
X988000D01*
X1102000Y466000D02*
X1105000D01*
X965000Y461500D02*
X989000D01*
X990000Y462500D01*
D35*
X1064998Y534652D02*
X1071838Y527812D01*
X1082802D01*
X1141946Y413554D02*
X1148500Y407000D01*
X1141363Y417689D02*
X1141946Y417106D01*
Y413554D02*
Y417106D01*
X1150000Y407000D02*
X1151500D01*
X1148500D02*
X1150000D01*
X1128776Y408224D02*
X1130000Y407000D01*
X1128776Y408224D02*
Y417576D01*
X1055000Y483754D02*
Y499500D01*
X1044194Y472948D02*
X1055000Y483754D01*
X1147007Y370000D02*
X1150000Y372993D01*
Y386000D01*
X1130000D02*
X1150000D01*
X1151500Y407000D02*
X1161542Y396958D01*
Y341542D02*
Y396958D01*
X1113536Y341064D02*
X1124600Y330000D01*
X1113536Y390536D02*
X1130000Y407000D01*
X1113536Y341064D02*
Y390536D01*
X1017855Y445583D02*
Y447519D01*
X978916Y470916D02*
X994458D01*
X1017855Y447519D01*
Y445583D02*
X1018438Y445000D01*
X997938Y424500D02*
X1018438Y445000D01*
X985000Y424500D02*
X997938D01*
X985000Y410000D02*
Y424500D01*
X1056148Y534652D02*
X1064998D01*
X1045800Y545000D02*
X1056148Y534652D01*
X1074928Y464820D02*
X1079280Y460468D01*
X1120535D01*
X1130221Y470154D01*
X1153922D01*
X1150000Y330000D02*
X1161542Y341542D01*
X1122000Y541927D02*
Y545000D01*
D36*
X1062473Y528556D02*
X1086077Y504952D01*
X1110234D01*
X921240Y528556D02*
X1062473D01*
X918464Y525780D02*
X921240Y528556D01*
D37*
X1149985Y330708D02*
D03*
X1124839Y329946D02*
D03*
X1046099Y544830D02*
D03*
D38*
X918800Y545000D02*
D03*
X944200D02*
D03*
X1020400D02*
D03*
X1071200D02*
D03*
X1122000D02*
D03*
X1096600D02*
D03*
X1045800D02*
D03*
X995000D02*
D03*
X969600D02*
D03*
X921400Y330000D02*
D03*
X946800D02*
D03*
X1023000D02*
D03*
X1073800D02*
D03*
X1124600D02*
D03*
X1099200D02*
D03*
X1048400D02*
D03*
X997600D02*
D03*
X972200D02*
D03*
D39*
X1147400Y545000D02*
D03*
X1150000Y330000D02*
D03*
D40*
X1082802Y527812D02*
D03*
X1115568Y417322D02*
D03*
X1141363Y417689D02*
D03*
X1128776Y417576D02*
D03*
X1110234Y504952D02*
D03*
X978916Y470916D02*
D03*
X997966Y504952D02*
D03*
X1153922Y470154D02*
D03*
X1074928Y464820D02*
D03*
X918464Y525780D02*
D03*
X1029454Y473194D02*
D03*
X1044194Y472948D02*
D03*
X1070356Y475742D02*
D03*
X1016949Y476718D02*
D03*
X1141476Y492506D02*
D03*
X1088390Y482092D02*
D03*
X1069594Y415544D02*
D03*
X1055878D02*
D03*
X904748Y471678D02*
D03*
X935228Y426212D02*
D03*
X1086081Y365275D02*
D03*
X1018438Y445000D02*
D03*
X1095725Y484245D02*
D03*
D41*
X1147007Y370000D02*
D03*
X1132993D02*
D03*
D42*
X1130000Y386000D02*
D03*
Y407000D02*
D03*
X1150000Y386000D02*
D03*
Y407000D02*
D03*
X1055000Y520500D02*
D03*
Y499500D02*
D03*
X985000Y424500D02*
D03*
Y445500D02*
D03*
D43*
X965000Y461500D02*
D03*
Y478500D02*
D03*
M02*
