G04*
G04 #@! TF.GenerationSoftware,Altium Limited,Altium Designer,24.1.2 (44)*
G04*
G04 Layer_Color=16711935*
%FSLAX44Y44*%
%MOMM*%
G71*
G04*
G04 #@! TF.SameCoordinates,69F57405-8C0C-4A01-AEDB-9DA0B547040B*
G04*
G04*
G04 #@! TF.FilePolarity,Positive*
G04*
G01*
G75*
%ADD13C,0.2000*%
%ADD46C,0.1000*%
D13*
X998000Y497000D02*
X1097000D01*
Y398000D02*
Y497000D01*
X998000Y398000D02*
X1097000D01*
X998000D02*
Y497000D01*
X902969Y435219D02*
Y454781D01*
Y435219D02*
X937031D01*
Y454781D01*
X902969D02*
X937031D01*
X904000Y433000D02*
X966000D01*
Y397000D02*
Y433000D01*
X904000Y397000D02*
X966000D01*
X904000D02*
Y433000D01*
X1093246Y378080D02*
Y394080D01*
X1065246D02*
X1093246D01*
X1065246Y378080D02*
Y394080D01*
Y378080D02*
X1093246D01*
X972000Y384000D02*
X988000D01*
X972000Y356000D02*
Y384000D01*
Y356000D02*
X988000D01*
Y384000D01*
X1121000Y497000D02*
Y513000D01*
Y497000D02*
X1149000D01*
Y513000D01*
X1121000D02*
X1149000D01*
X1106000Y397000D02*
Y413000D01*
Y397000D02*
X1134000D01*
Y413000D01*
X1106000D02*
X1134000D01*
X1005689Y353439D02*
X1024311D01*
Y386561D01*
X1005689D02*
X1024311D01*
X1005689Y353439D02*
Y386561D01*
X1041650Y392150D02*
X1058350D01*
X1041650Y357850D02*
Y392150D01*
Y357850D02*
X1058350D01*
Y392150D01*
X967031Y435219D02*
Y454781D01*
X932969D02*
X967031D01*
X932969Y435219D02*
Y454781D01*
Y435219D02*
X967031D01*
X925500Y477250D02*
Y512750D01*
Y477250D02*
X964500D01*
Y512750D01*
X925500D02*
X964500D01*
D46*
X1048500Y456731D02*
Y448400D01*
X1050166Y446734D01*
X1053498D01*
X1055164Y448400D01*
Y456731D01*
X1058497Y446734D02*
X1061829D01*
X1060163D01*
Y456731D01*
X1058497Y455065D01*
X927664Y454330D02*
X925998Y455997D01*
X922666D01*
X921000Y454330D01*
Y447666D01*
X922666Y446000D01*
X925998D01*
X927664Y447666D01*
X930997Y446000D02*
X934329D01*
X932663D01*
Y455997D01*
X930997Y454330D01*
X944326Y446000D02*
Y455997D01*
X939327Y450998D01*
X945992D01*
X936000Y425997D02*
Y424330D01*
X939332Y420998D01*
X942664Y424330D01*
Y425997D01*
X939332Y420998D02*
Y416000D01*
X945997D02*
X949329D01*
X947663D01*
Y425997D01*
X945997Y424330D01*
X1071582Y376749D02*
X1073248Y375083D01*
X1076580D01*
X1078246Y376749D01*
Y383414D01*
X1076580Y385080D01*
X1073248D01*
X1071582Y383414D01*
X1063251Y385080D02*
Y375083D01*
X1068249Y380082D01*
X1061585D01*
X989331Y362336D02*
X990997Y364002D01*
Y367334D01*
X989331Y369000D01*
X982666D01*
X981000Y367334D01*
Y364002D01*
X982666Y362336D01*
X981000Y352339D02*
Y359003D01*
X987664Y352339D01*
X989331D01*
X990997Y354005D01*
Y357337D01*
X989331Y359003D01*
Y349007D02*
X990997Y347340D01*
Y344008D01*
X989331Y342342D01*
X982666D01*
X981000Y344008D01*
Y347340D01*
X982666Y349007D01*
X989331D01*
X1142664Y514330D02*
X1140998Y515997D01*
X1137666D01*
X1136000Y514330D01*
Y507666D01*
X1137666Y506000D01*
X1140998D01*
X1142664Y507666D01*
X1145997Y506000D02*
X1149329D01*
X1147663D01*
Y515997D01*
X1145997Y514330D01*
X1154327Y515997D02*
X1160992D01*
Y514330D01*
X1154327Y507666D01*
Y506000D01*
X1127664Y414330D02*
X1125998Y415997D01*
X1122666D01*
X1121000Y414330D01*
Y407666D01*
X1122666Y406000D01*
X1125998D01*
X1127664Y407666D01*
X1130997Y406000D02*
X1134329D01*
X1132663D01*
Y415997D01*
X1130997Y414330D01*
X1145992Y415997D02*
X1142660Y414330D01*
X1139327Y410998D01*
Y407666D01*
X1140993Y406000D01*
X1144326D01*
X1145992Y407666D01*
Y409332D01*
X1144326Y410998D01*
X1139327D01*
X1014000Y371000D02*
X1004003D01*
Y375998D01*
X1005669Y377664D01*
X1009002D01*
X1010668Y375998D01*
Y371000D01*
Y374332D02*
X1014000Y377664D01*
X1004003Y387661D02*
Y380997D01*
X1009002D01*
X1007336Y384329D01*
Y385995D01*
X1009002Y387661D01*
X1012334D01*
X1014000Y385995D01*
Y382663D01*
X1012334Y380997D01*
X1060997Y367336D02*
Y374000D01*
X1055998D01*
Y370668D01*
Y374000D01*
X1051000D01*
X1060997Y364003D02*
X1051000D01*
Y359005D01*
X1052666Y357339D01*
X1054332D01*
X1055998Y359005D01*
Y364003D01*
Y359005D01*
X1057664Y357339D01*
X1059331D01*
X1060997Y359005D01*
Y364003D01*
X1051000Y354007D02*
Y350674D01*
Y352340D01*
X1060997D01*
X1059331Y354007D01*
X942336Y435670D02*
X944002Y434003D01*
X947334D01*
X949000Y435670D01*
Y442334D01*
X947334Y444000D01*
X944002D01*
X942336Y442334D01*
X939003Y444000D02*
X935671D01*
X937337D01*
Y434003D01*
X939003Y435670D01*
X924008Y434003D02*
X930673D01*
Y439002D01*
X927340Y437336D01*
X925674D01*
X924008Y439002D01*
Y442334D01*
X925674Y444000D01*
X929007D01*
X930673Y442334D01*
X946000Y504114D02*
Y495784D01*
X947666Y494118D01*
X950998D01*
X952664Y495784D01*
Y504114D01*
X955997Y502448D02*
X957663Y504114D01*
X960995D01*
X962661Y502448D01*
Y500782D01*
X960995Y499116D01*
X959329D01*
X960995D01*
X962661Y497450D01*
Y495784D01*
X960995Y494118D01*
X957663D01*
X955997Y495784D01*
M02*
