G04*
G04 #@! TF.GenerationSoftware,Altium Limited,Altium Designer,24.1.2 (44)*
G04*
G04 Layer_Color=32896*
%FSLAX44Y44*%
%MOMM*%
G71*
G04*
G04 #@! TF.SameCoordinates,69F57405-8C0C-4A01-AEDB-9DA0B547040B*
G04*
G04*
G04 #@! TF.FilePolarity,Positive*
G04*
G01*
G75*
%ADD13C,0.2000*%
%ADD46C,0.1000*%
D13*
X1126469Y378250D02*
X1153531D01*
X1126469Y361750D02*
Y378250D01*
Y361750D02*
X1153531D01*
Y378250D01*
X982000Y486000D02*
X998000D01*
Y458000D02*
Y486000D01*
X982000Y458000D02*
X998000D01*
X982000D02*
Y486000D01*
X1026500Y453000D02*
X1054500D01*
X1026500Y437000D02*
Y453000D01*
Y437000D02*
X1054500D01*
Y453000D01*
X977000Y414500D02*
X993000D01*
Y386500D02*
Y414500D01*
X977000Y386500D02*
X993000D01*
X977000D02*
Y414500D01*
X1122250Y412500D02*
X1137750D01*
Y380500D02*
Y412500D01*
X1122250Y380500D02*
X1137750D01*
X1122250D02*
Y412500D01*
X1142250D02*
X1157750D01*
Y380500D02*
Y412500D01*
X1142250Y380500D02*
X1157750D01*
X1142250D02*
Y412500D01*
X1050500Y417000D02*
Y433000D01*
X1078500D01*
Y417000D02*
Y433000D01*
X1050500Y417000D02*
X1078500D01*
X1049000D02*
Y433000D01*
X1021000Y417000D02*
X1049000D01*
X1021000D02*
Y433000D01*
X1049000D01*
X1097000Y489500D02*
X1113000D01*
Y461500D02*
Y489500D01*
X1097000Y461500D02*
X1113000D01*
X1097000D02*
Y489500D01*
X1011000Y502000D02*
Y518000D01*
X1039000D01*
Y502000D02*
Y518000D01*
X1011000Y502000D02*
X1039000D01*
X1047250Y494000D02*
X1062750D01*
X1047250D02*
Y526000D01*
X1062750D01*
Y494000D02*
Y526000D01*
X977250Y451000D02*
X992750D01*
Y419000D02*
Y451000D01*
X977250Y419000D02*
X992750D01*
X977250D02*
Y451000D01*
X1055500Y437000D02*
Y453000D01*
X1083500D01*
Y437000D02*
Y453000D01*
X1055500Y437000D02*
X1083500D01*
D46*
X1132336Y379330D02*
X1134002Y380997D01*
X1137334D01*
X1139000Y379330D01*
Y372666D01*
X1137334Y371000D01*
X1134002D01*
X1132336Y372666D01*
X1129003Y371000D02*
X1125671D01*
X1127337D01*
Y380997D01*
X1129003Y379330D01*
X1120673D02*
X1119007Y380997D01*
X1115674D01*
X1114008Y379330D01*
Y377664D01*
X1115674Y375998D01*
X1114008Y374332D01*
Y372666D01*
X1115674Y371000D01*
X1119007D01*
X1120673Y372666D01*
Y374332D01*
X1119007Y375998D01*
X1120673Y377664D01*
Y379330D01*
X1119007Y375998D02*
X1115674D01*
X980669Y464336D02*
X979003Y466002D01*
Y469334D01*
X980669Y471000D01*
X987334D01*
X989000Y469334D01*
Y466002D01*
X987334Y464336D01*
X989000Y461003D02*
Y457671D01*
Y459337D01*
X979003D01*
X980669Y461003D01*
X1032836Y454330D02*
X1034502Y455997D01*
X1037834D01*
X1039500Y454330D01*
Y447666D01*
X1037834Y446000D01*
X1034502D01*
X1032836Y447666D01*
X1029503Y455997D02*
X1022839D01*
Y454330D01*
X1029503Y447666D01*
Y446000D01*
X975669Y392836D02*
X974003Y394502D01*
Y397834D01*
X975669Y399500D01*
X982334D01*
X984000Y397834D01*
Y394502D01*
X982334Y392836D01*
X984000Y389503D02*
Y386171D01*
Y387837D01*
X974003D01*
X975669Y389503D01*
X982334Y381173D02*
X984000Y379507D01*
Y376174D01*
X982334Y374508D01*
X975669D01*
X974003Y376174D01*
Y379507D01*
X975669Y381173D01*
X977336D01*
X979002Y379507D01*
Y374508D01*
X1129000Y395500D02*
X1119003D01*
Y390502D01*
X1120669Y388836D01*
X1124002D01*
X1125668Y390502D01*
Y395500D01*
Y392168D02*
X1129000Y388836D01*
Y380505D02*
X1119003D01*
X1124002Y385503D01*
Y378839D01*
X1149000Y395500D02*
X1139003D01*
Y390502D01*
X1140669Y388836D01*
X1144002D01*
X1145668Y390502D01*
Y395500D01*
Y392168D02*
X1149000Y388836D01*
X1140669Y385503D02*
X1139003Y383837D01*
Y380505D01*
X1140669Y378839D01*
X1142336D01*
X1144002Y380505D01*
Y382171D01*
Y380505D01*
X1145668Y378839D01*
X1147334D01*
X1149000Y380505D01*
Y383837D01*
X1147334Y385503D01*
X1072164Y415670D02*
X1070498Y414003D01*
X1067166D01*
X1065500Y415670D01*
Y422334D01*
X1067166Y424000D01*
X1070498D01*
X1072164Y422334D01*
X1075497D02*
X1077163Y424000D01*
X1080495D01*
X1082161Y422334D01*
Y415670D01*
X1080495Y414003D01*
X1077163D01*
X1075497Y415670D01*
Y417336D01*
X1077163Y419002D01*
X1082161D01*
X1027336Y434330D02*
X1029002Y435997D01*
X1032334D01*
X1034000Y434330D01*
Y427666D01*
X1032334Y426000D01*
X1029002D01*
X1027336Y427666D01*
X1017339Y435997D02*
X1020671Y434330D01*
X1024003Y430998D01*
Y427666D01*
X1022337Y426000D01*
X1019005D01*
X1017339Y427666D01*
Y429332D01*
X1019005Y430998D01*
X1024003D01*
X1095669Y467836D02*
X1094003Y469502D01*
Y472834D01*
X1095669Y474500D01*
X1102334D01*
X1104000Y472834D01*
Y469502D01*
X1102334Y467836D01*
X1095669Y464503D02*
X1094003Y462837D01*
Y459505D01*
X1095669Y457839D01*
X1097336D01*
X1099002Y459505D01*
Y461171D01*
Y459505D01*
X1100668Y457839D01*
X1102334D01*
X1104000Y459505D01*
Y462837D01*
X1102334Y464503D01*
X1032664Y500669D02*
X1030998Y499003D01*
X1027666D01*
X1026000Y500669D01*
Y507334D01*
X1027666Y509000D01*
X1030998D01*
X1032664Y507334D01*
X1042661Y509000D02*
X1035997D01*
X1042661Y502336D01*
Y500669D01*
X1040995Y499003D01*
X1037663D01*
X1035997Y500669D01*
X1056000Y511000D02*
X1065997D01*
Y515998D01*
X1064331Y517664D01*
X1060998D01*
X1059332Y515998D01*
Y511000D01*
Y514332D02*
X1056000Y517664D01*
Y527661D02*
Y520997D01*
X1062664Y527661D01*
X1064331D01*
X1065997Y525995D01*
Y522663D01*
X1064331Y520997D01*
X984000Y434000D02*
X974003D01*
Y429002D01*
X975669Y427336D01*
X979002D01*
X980668Y429002D01*
Y434000D01*
Y430668D02*
X984000Y427336D01*
Y424003D02*
Y420671D01*
Y422337D01*
X974003D01*
X975669Y424003D01*
X1077164Y435670D02*
X1075498Y434003D01*
X1072166D01*
X1070500Y435670D01*
Y442334D01*
X1072166Y444000D01*
X1075498D01*
X1077164Y442334D01*
X1080497Y444000D02*
X1083829D01*
X1082163D01*
Y434003D01*
X1080497Y435670D01*
X1088827D02*
X1090493Y434003D01*
X1093826D01*
X1095492Y435670D01*
Y442334D01*
X1093826Y444000D01*
X1090493D01*
X1088827Y442334D01*
Y435670D01*
M02*
