G04*
G04 #@! TF.GenerationSoftware,Altium Limited,Altium Designer,24.1.2 (44)*
G04*
G04 Layer_Color=255*
%FSLAX44Y44*%
%MOMM*%
G71*
G04*
G04 #@! TF.SameCoordinates,69F57405-8C0C-4A01-AEDB-9DA0B547040B*
G04*
G04*
G04 #@! TF.FilePolarity,Positive*
G04*
G01*
G75*
%ADD21R,0.7000X1.3000*%
%ADD22R,1.3000X0.7000*%
%ADD38C,1.6000*%
G04:AMPARAMS|DCode=39|XSize=1.6mm|YSize=1.6mm|CornerRadius=0.4mm|HoleSize=0mm|Usage=FLASHONLY|Rotation=180.000|XOffset=0mm|YOffset=0mm|HoleType=Round|Shape=RoundedRectangle|*
%AMROUNDEDRECTD39*
21,1,1.6000,0.8000,0,0,180.0*
21,1,0.8000,1.6000,0,0,180.0*
1,1,0.8000,-0.4000,0.4000*
1,1,0.8000,0.4000,0.4000*
1,1,0.8000,0.4000,-0.4000*
1,1,0.8000,-0.4000,-0.4000*
%
%ADD39ROUNDEDRECTD39*%
%ADD41R,1.1048X1.3562*%
%ADD42R,1.2000X0.9000*%
%ADD43R,1.4500X1.2500*%
D21*
X1050000Y445000D02*
D03*
X1031000D02*
D03*
X1074000Y425000D02*
D03*
X1055000D02*
D03*
X1025500D02*
D03*
X1044500D02*
D03*
X1034500Y510000D02*
D03*
X1015500D02*
D03*
X1079000Y445000D02*
D03*
X1060000D02*
D03*
D22*
X990000Y462500D02*
D03*
Y481500D02*
D03*
X985000Y391000D02*
D03*
Y410000D02*
D03*
X1105000Y466000D02*
D03*
Y485000D02*
D03*
D38*
X918800Y545000D02*
D03*
X944200D02*
D03*
X1020400D02*
D03*
X1071200D02*
D03*
X1122000D02*
D03*
X1096600D02*
D03*
X1045800D02*
D03*
X995000D02*
D03*
X969600D02*
D03*
X921400Y330000D02*
D03*
X946800D02*
D03*
X1023000D02*
D03*
X1073800D02*
D03*
X1124600D02*
D03*
X1099200D02*
D03*
X1048400D02*
D03*
X997600D02*
D03*
X972200D02*
D03*
D39*
X1147400Y545000D02*
D03*
X1150000Y330000D02*
D03*
D41*
X1147007Y370000D02*
D03*
X1132993D02*
D03*
D42*
X1130000Y386000D02*
D03*
Y407000D02*
D03*
X1150000Y386000D02*
D03*
Y407000D02*
D03*
X1055000Y520500D02*
D03*
Y499500D02*
D03*
X985000Y424500D02*
D03*
Y445500D02*
D03*
D43*
X965000Y461500D02*
D03*
Y478500D02*
D03*
M02*
