G04*
G04 #@! TF.GenerationSoftware,Altium Limited,Altium Designer,24.1.2 (44)*
G04*
G04 Layer_Color=32896*
%FSLAX44Y44*%
%MOMM*%
G71*
G04*
G04 #@! TF.SameCoordinates,69F57405-8C0C-4A01-AEDB-9DA0B547040B*
G04*
G04*
G04 #@! TF.FilePolarity,Positive*
G04*
G01*
G75*
%ADD35C,0.2032*%
D35*
X1135000Y370000D02*
X1145000D01*
X1140000Y365000D02*
Y375000D01*
X985000Y472000D02*
X995000D01*
X990000Y467000D02*
Y477000D01*
X1035500Y445000D02*
X1045500D01*
X1040500Y440000D02*
Y450000D01*
X980000Y400500D02*
X990000D01*
X985000Y395500D02*
Y405500D01*
X1125000Y396500D02*
X1135000D01*
X1130000Y391500D02*
Y401500D01*
X1145000Y396500D02*
X1155000D01*
X1150000Y391500D02*
Y401500D01*
X1064500Y420000D02*
Y430000D01*
X1059500Y425000D02*
X1069500D01*
X1035000Y420000D02*
Y430000D01*
X1030000Y425000D02*
X1040000D01*
X1100000Y475500D02*
X1110000D01*
X1105000Y470500D02*
Y480500D01*
X1025000Y505000D02*
Y515000D01*
X1020000Y510000D02*
X1030000D01*
X1050000D02*
X1060000D01*
X1055000Y505000D02*
Y515000D01*
X980000Y435000D02*
X990000D01*
X985000Y430000D02*
Y440000D01*
X1069500Y440000D02*
Y450000D01*
X1064500Y445000D02*
X1074500D01*
M02*
