G04*
G04 #@! TF.GenerationSoftware,Altium Limited,Altium Designer,24.1.2 (44)*
G04*
G04 Layer_Color=8421504*
%FSLAX44Y44*%
%MOMM*%
G71*
G04*
G04 #@! TF.SameCoordinates,69F57405-8C0C-4A01-AEDB-9DA0B547040B*
G04*
G04*
G04 #@! TF.FilePolarity,Positive*
G04*
G01*
G75*
%ADD16R,1.2000X0.3000*%
%ADD17R,0.3000X1.2000*%
%ADD18O,0.5500X1.2500*%
%ADD19R,1.3048X1.4562*%
%ADD20R,1.9000X2.4000*%
%ADD21R,0.7000X1.3000*%
%ADD22R,1.3000X0.7000*%
%ADD23R,1.3621X1.0081*%
%ADD24R,1.4700X1.2850*%
%ADD25R,1.2200X0.9100*%
G04:AMPARAMS|DCode=26|XSize=1.1mm|YSize=0.6mm|CornerRadius=0.051mm|HoleSize=0mm|Usage=FLASHONLY|Rotation=0.000|XOffset=0mm|YOffset=0mm|HoleType=Round|Shape=RoundedRectangle|*
%AMROUNDEDRECTD26*
21,1,1.1000,0.4980,0,0,0.0*
21,1,0.9980,0.6000,0,0,0.0*
1,1,0.1020,0.4990,-0.2490*
1,1,0.1020,-0.4990,-0.2490*
1,1,0.1020,-0.4990,0.2490*
1,1,0.1020,0.4990,0.2490*
%
%ADD26ROUNDEDRECTD26*%
%ADD27R,1.5000X1.4000*%
D16*
X1005000Y475000D02*
D03*
Y470000D02*
D03*
Y465000D02*
D03*
Y460000D02*
D03*
Y455000D02*
D03*
Y450000D02*
D03*
Y445000D02*
D03*
Y440000D02*
D03*
Y435000D02*
D03*
Y430000D02*
D03*
Y425000D02*
D03*
Y420000D02*
D03*
X1090000D02*
D03*
Y425000D02*
D03*
Y430000D02*
D03*
Y435000D02*
D03*
Y440000D02*
D03*
Y445000D02*
D03*
Y450000D02*
D03*
Y455000D02*
D03*
Y460000D02*
D03*
Y465000D02*
D03*
Y470000D02*
D03*
Y475000D02*
D03*
D17*
X1020000Y405000D02*
D03*
X1025000D02*
D03*
X1030000D02*
D03*
X1035000D02*
D03*
X1040000D02*
D03*
X1045000D02*
D03*
X1050000D02*
D03*
X1055000D02*
D03*
X1060000D02*
D03*
X1065000D02*
D03*
X1070000D02*
D03*
X1075000D02*
D03*
Y490000D02*
D03*
X1070000D02*
D03*
X1065000D02*
D03*
X1060000D02*
D03*
X1055000D02*
D03*
X1050000D02*
D03*
X1045000D02*
D03*
X1040000D02*
D03*
X1035000D02*
D03*
X1030000D02*
D03*
X1025000D02*
D03*
X1020000D02*
D03*
D18*
X1115822Y428752D02*
D03*
X1128522D02*
D03*
X1141222D02*
D03*
X1153922D02*
D03*
X1115822Y481252D02*
D03*
X1128522D02*
D03*
X1141222D02*
D03*
X1153922D02*
D03*
D19*
X928007Y445000D02*
D03*
X911993D02*
D03*
X941993D02*
D03*
X958007D02*
D03*
D20*
X914500Y415000D02*
D03*
X955500D02*
D03*
D21*
X1069746Y386080D02*
D03*
X1088746D02*
D03*
X1144500Y505000D02*
D03*
X1125500D02*
D03*
X1129500Y405000D02*
D03*
X1110500D02*
D03*
D22*
X980000Y360500D02*
D03*
Y379500D02*
D03*
D23*
X1015000Y379020D02*
D03*
Y360980D02*
D03*
D24*
X1050000Y365275D02*
D03*
Y384725D02*
D03*
D25*
X950000Y353650D02*
D03*
Y386350D02*
D03*
D26*
X958000Y504500D02*
D03*
Y485500D02*
D03*
X932000D02*
D03*
Y495000D02*
D03*
Y504500D02*
D03*
D27*
X980000Y486000D02*
D03*
Y505000D02*
D03*
X905000Y485000D02*
D03*
Y504000D02*
D03*
M02*
